# xmcd
#
# Track frame offsets: 
#        150
#        12112
#        23237
#        34140
#        46090
#        61475
#        72952
#        83842
#        94935
#        105932
#        118120
#        130562
#
# Disc length: 1933 seconds
#
# Revision: 9
# Processed by: cddbd v1.5.2PL0 Copyright (c) Steve Scherf et al.
# Submitted via: ExactAudioCopyFreeDBPlugin 1.0
#
DISCID=90078b0c
DTITLE=Cale, J.J. - Naturally
DYEAR=1972
DGENRE=Rock
TTITLE0=Call Me The Breeze
TTITLE1=Call The Doctor
TTITLE2=Don't Go To Strangers
TTITLE3=Woman I Love
TTITLE4=Magnolia
TTITLE5=Clyde
TTITLE6=Crazy Mama
TTITLE7=Nowhere To Run
TTITLE8=After Midnight
TTITLE9=River Runs Deep
TTITLE10=Bringing It Back
TTITLE11=Crying Eyes
EXTD=
EXTT0=
EXTT1=
EXTT2=
EXTT3=
EXTT4=
EXTT5=
EXTT6=
EXTT7=
EXTT8=
EXTT9=
EXTT10=
EXTT11=
PLAYORDER=
